<?xml version="1.0" standalone="no"?>
<!DOCTYPE svg PUBLIC "-//W3C//DTD SVG 20010904//EN"
 "http://www.w3.org/TR/2001/REC-SVG-20010904/DTD/svg10.dtd">
<svg version="1.0" xmlns="http://www.w3.org/2000/svg"
 width="480.000000pt" height="270.000000pt" viewBox="0 0 480.000000 270.000000"
 preserveAspectRatio="xMidYMid meet">

<g transform="translate(0.000000,270.000000) scale(0.100000,-0.100000)"
fill="#000000" stroke="none">
<path d="M993 1545 c4 -109 8 -262 9 -339 1 -78 4 2 8 177 4 174 10 320 13
324 4 3 136 9 294 13 159 4 234 7 168 8 -66 1 -205 5 -309 9 l-189 6 6 -198z"/>
<path d="M1041 1429 c0 -162 4 -266 9 -254 5 11 9 127 9 258 l1 237 118 1 c64
1 169 5 232 9 111 6 109 7 -75 8 -104 1 -214 5 -242 8 l-53 7 1 -274z"/>
<path d="M1087 1473 c3 -98 7 -180 9 -182 2 -2 4 43 4 100 0 57 3 134 7 172
l6 67 91 1 c50 1 116 4 146 9 41 5 13 8 -107 9 l-162 1 6 -177z"/>
<path d="M1200 1350 l0 -140 30 0 c28 0 30 2 30 40 0 38 2 40 30 40 24 0 35
-8 56 -40 23 -34 32 -40 61 -40 l34 0 -18 31 c-10 17 -24 35 -30 41 -10 8 -6
17 17 38 21 19 30 38 30 59 0 79 -47 111 -164 111 l-76 0 0 -140z m152 78 c46
-38 19 -88 -48 -88 l-44 0 0 50 0 50 38 0 c21 0 45 -6 54 -12z"/>
<path d="M1490 1350 l0 -140 110 0 110 0 0 25 c0 24 -2 25 -75 25 l-75 0 0 35
0 35 66 0 c62 0 65 1 62 23 -3 20 -9 22 -65 25 -62 3 -63 3 -63 32 l0 30 70 0
c68 0 70 1 70 25 l0 25 -105 0 -105 0 0 -140z"/>
<path d="M1776 1468 c-14 -13 -28 -35 -32 -50 -8 -38 37 -83 93 -93 52 -8 76
-25 67 -48 -7 -20 -82 -24 -116 -6 -18 9 -24 8 -35 -7 -7 -10 -13 -21 -13 -25
0 -14 67 -33 117 -33 60 1 100 23 109 59 15 59 -18 95 -98 110 -43 8 -63 27
-54 51 5 12 17 15 54 12 26 -2 53 -6 60 -9 8 -2 18 6 23 19 7 19 5 24 -17 32
-14 6 -50 10 -79 10 -42 0 -60 -5 -79 -22z"/>
<path d="M2020 1350 l0 -140 30 0 30 0 0 140 0 140 -30 0 -30 0 0 -140z"/>
<path d="M2150 1350 l0 -140 100 0 100 0 0 25 c0 24 -2 25 -70 25 l-70 0 0
115 0 115 -30 0 -30 0 0 -140z"/>
<path d="M2390 1350 l0 -140 35 0 35 0 0 140 0 140 -35 0 -35 0 0 -140z"/>
<path d="M2520 1350 l0 -140 110 0 110 0 0 25 c0 24 -2 25 -75 25 l-75 0 0 35
0 35 66 0 c62 0 65 1 62 23 -3 20 -9 22 -65 25 -62 3 -63 3 -63 32 l0 30 70 0
c68 0 70 1 70 25 l0 25 -105 0 -105 0 0 -140z"/>
<path d="M2790 1350 l0 -140 36 0 36 0 -4 80 c-2 44 -1 80 2 80 3 0 34 -36 69
-80 53 -66 69 -80 93 -80 l28 0 0 140 0 140 -36 0 -36 0 4 -80 c2 -44 1 -80
-2 -80 -3 0 -34 36 -70 80 -53 65 -70 80 -92 80 l-28 0 0 -140z"/>
<path d="M3162 1469 c-42 -27 -62 -67 -62 -121 0 -120 145 -187 245 -114 19
14 19 15 1 35 -18 19 -21 20 -42 6 -34 -22 -79 -19 -111 9 -22 19 -28 32 -28
66 0 73 67 110 134 75 26 -13 30 -13 46 5 10 11 16 22 14 23 -55 44 -142 51
-197 16z"/>
<path d="M3410 1350 l0 -140 105 0 105 0 0 25 c0 24 -2 25 -76 25 l-75 0 3 33
c3 32 3 32 66 35 58 3 62 4 62 27 0 24 -3 25 -66 25 l-65 0 3 28 c3 26 5 27
76 30 69 3 72 4 72 27 0 25 0 25 -105 25 l-105 0 0 -140z"/>
<path d="M1829 1080 c-4 -42 -2 -130 4 -130 4 0 7 19 7 43 l1 42 23 -28 23
-29 21 29 21 28 1 -42 c0 -24 5 -43 10 -43 6 0 10 29 10 68 l-1 67 -24 -30
c-14 -16 -25 -33 -25 -37 0 -19 -21 -5 -45 29 -14 21 -25 35 -26 33z"/>
<path d="M1977 1073 c-4 -3 -7 -32 -7 -64 0 -43 4 -58 16 -63 24 -9 54 -7 54
4 0 6 -11 10 -25 10 -34 0 -32 28 3 33 l27 4 -27 2 c-24 1 -28 5 -28 31 0 25
4 30 25 30 14 0 25 5 25 10 0 11 -53 14 -63 3z"/>
<path d="M2067 1073 c-4 -3 -7 -32 -7 -64 0 -64 11 -75 60 -58 33 12 46 43 36
82 -8 32 -70 60 -89 40z m69 -38 c15 -23 15 -27 0 -50 -9 -14 -25 -25 -36 -25
-17 0 -20 7 -20 50 0 43 3 50 20 50 11 0 27 -11 36 -25z"/>
<path d="M2187 1073 c-11 -10 -8 -123 3 -123 6 0 10 28 10 65 0 65 -1 71 -13
58z"/>
<path d="M2252 1037 c-29 -66 -35 -87 -23 -87 6 0 11 5 11 10 0 16 56 12 70
-5 24 -28 21 -8 -9 60 l-29 68 -20 -46z m34 -44 c-2 -3 -11 -3 -19 -1 -11 2
-12 9 -5 28 l10 25 9 -24 c5 -13 7 -26 5 -28z"/>
<path d="M2416 1059 c-36 -28 -33 -73 6 -102 35 -26 81 -14 86 21 3 18 -1 22
-25 21 -18 -1 -21 -3 -10 -6 24 -6 16 -27 -12 -31 -30 -5 -51 15 -51 48 0 37
23 54 60 46 31 -6 42 7 14 18 -26 10 -40 7 -68 -15z"/>
<path d="M2531 1013 c0 -51 3 -62 9 -45 12 27 36 29 45 2 3 -11 11 -20 16 -20
6 0 8 8 4 19 -3 10 0 31 7 46 11 25 10 29 -11 46 -13 11 -34 19 -47 19 -23 0
-24 -3 -23 -67z m64 17 c0 -20 -6 -26 -27 -28 -25 -3 -28 0 -28 28 0 28 3 31
28 28 21 -2 27 -8 27 -28z"/>
<path d="M2655 1055 c-14 -13 -25 -33 -25 -45 0 -27 43 -70 70 -70 27 0 70 43
70 70 0 27 -43 70 -70 70 -11 0 -32 -11 -45 -25z m89 -17 c7 -11 7 -26 0 -45
-7 -22 -17 -29 -42 -31 -26 -3 -34 1 -44 22 -18 41 3 78 44 74 17 -2 36 -11
42 -20z"/>
<path d="M2792 1025 c-2 -63 8 -85 38 -85 30 0 50 34 50 83 0 68 -18 68 -22 0
-3 -51 -6 -58 -25 -61 -24 -4 -30 9 -36 83 -3 29 -4 23 -5 -20z"/>
<path d="M2907 1073 c-11 -10 -8 -123 3 -123 6 0 10 9 10 20 0 14 7 20 24 20
31 0 50 24 42 54 -7 28 -61 48 -79 29z m58 -43 c0 -18 -6 -26 -22 -28 -20 -3
-23 1 -23 28 0 27 3 31 23 28 16 -2 22 -10 22 -28z"/>
<path d="M1363 1003 c64 -2 170 -2 235 0 64 1 11 3 -118 3 -129 0 -182 -2
-117 -3z"/>
<path d="M3175 993 c145 -7 405 -7 405 0 0 4 -105 6 -232 5 -128 -1 -206 -3
-173 -5z"/>
</g>
</svg>
